<?xml version="1.0" encoding="utf-8"?>
<!-- Generator: Adobe Illustrator 25.1.0, SVG Export Plug-In . SVG Version: 6.00 Build 0)  -->
<svg version="1.1" xmlns="http://www.w3.org/2000/svg" xmlns:xlink="http://www.w3.org/1999/xlink" x="0px" y="0px"
	 viewBox="0 0 809.87 478.98" style="enable-background:new 0 0 809.87 478.98;" xml:space="preserve">
<style type="text/css">
	.st0{fill:#5EBFD4;}
	.st1{fill:#08588A;}
	.st2{font-family:'PFBeauSansPro-Bold';}
	.st3{font-size:41.9777px;}
	.st4{display:none;}
</style>
<g id="cropped_svg">
	<path class="st0" d="M510.67,460.84v-74.98c0-8.21,7.99-12.22,14.18-12.22h55.32c7.81,0,11.55,1.69,15.19,5.07
		c3.64,3.38,5.46,8.5,5.46,15.35v13.83c0,3.51-0.73,6.3-2.18,8.36c-1.46,2.06-3.21,3.58-5.26,4.55c2.25,0.97,4.09,2.53,5.51,4.68
		c1.42,2.15,2.13,5.33,2.13,9.55v15.68c0,6.32-1.85,11.29-5.56,14.89c-3.71,3.6-9.47,5.4-17.27,5.4h-59.86
		C514.1,470.98,510.67,466.44,510.67,460.84z M525.07,412.09h53.81c2.78,0,4.77-0.42,5.96-1.25c1.19-0.83,1.79-2,1.79-3.49V398
		c0-1.76-0.69-3.07-2.08-3.95c-1.39-0.88-3.34-1.32-5.86-1.32h-53.61V412.09z M525.07,451.88h52.62c2.98,0,5.2-0.46,6.65-1.38
		c1.46-0.92,2.18-2.79,2.18-5.6v-9.22c0-2.02-0.74-3.51-2.23-4.48c-1.49-0.96-3.62-1.45-6.4-1.45h-52.82V451.88z"/>
	<path class="st1" d="M362.67,376.57c-5.86-2.03-31.86-3.08-39.69-2.98c-11.74,0.15-33.82,0.95-39.69,2.98
		c-2.31,0.8-4.15,2.04-5.55,3.65v12.51h37.77v12.69v17.78c0,0-0.52,42.87,0,50.98c0.08,1.27,14.35-0.41,14.37-4.16
		c0.11-17.82,0.07-57.38,0.04-77.29h0.23h38.02v-12.51C366.79,378.6,364.95,377.36,362.67,376.57z"/>
	<path class="st1" d="M390.42,451.88V431.2h62.05v-17.78h-62.05v-20.68h75.85v-12.51h0c-1.39-1.61-3.22-2.86-5.5-3.65
		c-5.85-2.03-31.78-3.08-39.58-2.98c-11.71,0.15-33.73,0.95-39.58,2.98c-2.3,0.8-4.14,2.04-5.54,3.65h-0.04v84.18h0.12
		c1.39,1.61,3.22,2.86,5.5,3.65c5.85,2.03,31.78,3.08,39.58,2.98c11.71-0.15,33.73-0.95,39.58-2.98c2.3-0.8,4.14-2.04,5.54-3.65
		h0.12v-12.51H390.42z"/>
	<path class="st0" d="M804.83,396.02c0-4.07-0.02-9.92-0.08-18.32c-0.02-3.75-14.32-4.9-14.4-3.62c-0.52,8.11-0.32,30.61-0.32,30.61
		v16.76h-51.52c-3.24,0-5.61-0.68-7.1-2.04c-1.49-1.36-2.23-3.4-2.23-6.13v-8.59c0,0,0.2-22.5-0.32-30.61
		c-0.08-1.27-14.38-0.12-14.4,3.62c-0.05,8.4-0.07,14.25-0.08,18.32h0v16.73c0,4.3,0.43,8.1,1.29,11.4c0.86,3.29,2.23,6.06,4.12,8.3
		c1.89,2.24,4.37,3.93,7.45,5.07c3.08,1.14,6.87,1.71,11.37,1.71h51.43v4.48c0,2.72-0.74,4.77-2.23,6.13
		c-1.49,1.36-3.86,2.04-7.1,2.04h-51.72v19.1h51.62c4.43,0,8.21-0.57,11.32-1.71c3.11-1.14,5.61-2.83,7.5-5.07
		c1.89-2.24,3.26-5.01,4.12-8.3c0.86-3.29,1.29-7.09,1.29-11.39L804.83,396.02L804.83,396.02z"/>
	<path class="st1" d="M241.14,377.75c-0.02-3.75-14.21-4.9-14.29-3.63c-0.52,8.11-0.08,27.97-0.08,27.97h0v2.59h-61.7v-2.59h0
		c0,0,0.44-19.86-0.08-27.97c-0.08-1.27-14.27-0.12-14.29,3.63c-0.12,18.2-0.07,22.99-0.04,24.24c-0.03,15.75-0.07,49.26,0.04,67.46
		c0.02,3.75,14.33,4.7,14.41,3.43c0.52-8.11-0.04-50.26-0.04-50.26v-0.17h61.7c0,0-0.55,42.34-0.03,50.45
		c0.08,1.27,14.38,0.12,14.4-3.62c0.11-18.14,0.07-51.49,0.04-67.31C241.21,400.7,241.25,395.89,241.14,377.75z"/>
	<path class="st0" d="M703.97,442.98v-36.29c0-10.62-2.33-18.79-7-24.5c-4.67-5.71-11.76-8.56-21.3-8.56h-33.85
		c-9.53,0-16.63,2.85-21.3,8.56c-4.67,5.71-7,13.88-7,24.5v35.77c-0.03,1-0.08,5.36,0.04,24.4c0.02,3.75,14.21,4.9,14.29,3.63
		c0.52-8.11,0.08-27.97,0.08-27.97l-0.02,0v-2.62h61.65v3.38l-0.01,0c0,0-0.44,19.86,0.08,27.97c0.08,1.27,14.27,0.12,14.29-3.63
		C704.07,446.2,703.99,443.36,703.97,442.98z M627.92,422.11v-15.41c0-2.37,0.21-4.41,0.64-6.13c0.43-1.71,1.19-3.16,2.28-4.35
		c1.09-1.18,2.53-2.06,4.32-2.63c1.79-0.57,4.04-0.86,6.75-0.86h33.66c2.71,0,4.96,0.29,6.75,0.86c1.79,0.57,3.23,1.45,4.32,2.63
		c1.09,1.19,1.85,2.63,2.28,4.35c0.43,1.71,0.65,3.76,0.65,6.13v15.41H627.92z"/>
	<g>
		<path class="st1" d="M293.76,4.25c0,0,3.34,26.74,143.7,55.14s60.15,101.93,51.8,106.94c-8.35,5.01,5.01-30.08-98.59-41.77
			s-96.92-51.31-96.92-51.31V4.25z"/>
		<path class="st1" d="M293.76,137.93c0,0,3.34,26.74,143.7,55.14s60.15,101.93,51.8,106.94c-8.35,5.01,5.01-30.08-98.59-41.77
			s-96.92-51.31-96.92-51.31V137.93z"/>
		<path class="st0" d="M466.31,320.53c-36.27,26.68-64.85,20.18-84.78,12.33c-43.48-17.12-167.28-83.42-167.28-83.42
			s85.06,34.91,147.62,53.49C414.23,318.5,466.31,320.53,466.31,320.53z"/>
	</g>
	<text transform="matrix(1 0 0 1 515.4108 339.9445)" class="st1 st2 st3">Ltd.</text>
	<path class="st1" d="M269.12,422.89l-0.08-17.78v-3.02h0c0,0,0.44-19.86-0.08-27.97c-0.08-1.27-14.27-0.12-14.29,3.63
		c-0.12,18.69-0.07,23.23-0.04,24.34c-0.03,14.83-0.08,48.95,0.04,67.64c0.02,3.75,14.34,4.36,14.43,3.09
		C269.62,464.7,269.12,422.89,269.12,422.89z"/>
	<path class="st1" d="M137.76,393.57c-0.01-3.61-0.03-8.67-0.07-15.82c-0.02-3.75-14.21-4.9-14.29-3.63
		c-0.3,4.62-0.39,13.04-0.42,19.44h0v1.06c-0.01,4.31,0,7.47,0,7.47v41.61c0,2.72-0.74,4.77-2.23,6.13
		c-1.49,1.36-3.86,2.04-7.1,2.04H78.59v-78.25H64.2v78.25H28.95c-3.24,0-5.61-0.68-7.1-2.04c-1.49-1.36-2.23-3.4-2.23-6.13V402.1
		c0,0,0.09-19.86-0.43-27.97c-0.08-1.27-14.27-0.12-14.29,3.63c-0.11,18.06-0.07,22.91-0.04,24.21H4.83v42.54
		c0,4.3,0.43,8.1,1.29,11.39c0.86,3.29,2.23,6.06,4.12,8.3c1.89,2.24,4.36,3.97,7.45,5.07c7.92,2.82,43.02,4.28,53.58,4.14
		c15.86-0.21,45.67-1.32,53.59-4.14c3.12-1.11,5.61-2.83,7.5-5.07c1.89-2.24,3.26-5.01,4.12-8.3c0.86-3.29,1.29-7.09,1.29-11.39
		L137.76,393.57L137.76,393.57z"/>
</g>
<g id="reperes" class="st4">
</g>
</svg>
