<svg width="64" height="64" viewBox="0 0 64 64" fill="none" xmlns="http://www.w3.org/2000/svg">
<path d="M19 17.9511H32.8065C39.3496 17.9511 43.2582 21.1886 43.2582 26.6102V26.6913C43.2582 32.2674 39.2099 35.5972 32.3976 35.5972H27.8515L23.3529 40.1821L21.9899 41.621V31.4617L28.6046 26.0832L35.9146 30.8329C36.3382 31.1434 36.8946 31.2038 37.3733 30.9907C37.6092 30.8848 37.8132 30.719 37.965 30.5097C38.1168 30.3004 38.2111 30.0549 38.2385 29.7978C38.266 29.5407 38.2255 29.2809 38.1212 29.0443C38.0169 28.8077 37.8525 28.6026 37.6442 28.4494L28.6244 22.4325L19.0492 29.9417V49L25.4491 42.2481L29.0773 38.5474H32.3968C36.3442 38.5474 39.7137 37.5252 42.1446 35.5886C44.7946 33.4786 46.1938 30.4024 46.1938 26.6922V26.6111C46.1938 23.051 44.8895 20.0783 42.4241 18.0158C40.0691 16.0429 36.7427 15 32.8057 15H19V17.9511Z" fill="#E5004B"/>
<path d="M19 29.9288L28.5753 22.4325L37.595 28.4494C37.7639 28.5668 37.9057 28.7188 38.011 28.8954C38.1164 29.072 38.1828 29.2691 38.2058 29.4734C38.2288 29.6778 38.208 29.8847 38.1446 30.0803C38.0812 30.2759 37.9768 30.4557 37.8383 30.6077C37.4984 30.8967 36.9023 31.5118 35.8628 30.8329L28.5503 26.0832L21.9356 31.4505L19 29.9288Z" fill="#C81344"/>
</svg>
