<svg width="48" height="29" viewBox="0 0 48 29" fill="none" xmlns="http://www.w3.org/2000/svg">
<path fill-rule="evenodd" clip-rule="evenodd" d="M18.3279 23.3883C19.157 22.3934 20.3851 21.8182 21.6802 21.8182H39.2727C44.0927 21.8182 48 17.9108 48 13.0909V8.72727C48 3.90733 44.0927 0 39.2727 0H35.862C34.567 0 33.3388 0.575228 32.5098 1.5701L29.6721 4.97535C28.843 5.97023 27.6149 6.54545 26.3198 6.54545H8.72727C3.90733 6.54545 0 10.4528 0 15.2727V19.6364C0 24.4563 3.90733 28.3636 8.72727 28.3636H12.138C13.433 28.3636 14.6612 27.7884 15.4902 26.7935L18.3279 23.3883ZM41.4545 8.72727C41.4545 7.52229 40.4777 6.54545 39.2727 6.54545H32.5893C31.2942 6.54545 30.0661 7.12068 29.237 8.11556L26.3993 11.5208C25.5703 12.5157 24.3421 13.0909 23.0471 13.0909H8.72727C7.52229 13.0909 6.54545 14.0677 6.54545 15.2727V19.6364C6.54545 20.8413 7.52229 21.8182 8.72727 21.8182H15.4107C16.7058 21.8182 17.9339 21.243 18.763 20.2481L21.6007 16.8428C22.4297 15.848 23.6579 15.2727 24.9529 15.2727H39.2727C40.4777 15.2727 41.4545 14.2959 41.4545 13.0909V8.72727Z" fill="black"/>
</svg>
