<svg width="64" height="64" viewBox="0 0 64 64" fill="none" xmlns="http://www.w3.org/2000/svg">
<g clip-path="url(#clip0_32_101)">
<path d="M40.06 30.9321C39.3673 30.9339 37.269 30.9393 34.9527 28.9597H34.9542C32.4585 26.8273 32.7732 23.6023 32.7732 23.6023V11.2999L37.5714 11.2999V23.6023C37.5714 23.6023 37.4742 24.8772 38.3589 25.8982C39.2427 26.9192 40.4429 26.9763 40.8304 26.9763H44.2135C44.2135 26.9763 45.6672 26.9304 46.5033 25.9782C47.3394 25.0262 47.388 24.3727 47.388 23.7192V11.2999H52.1861V30.9335H47.388V30.0099C45.9981 31.0017 44.5157 30.9321 44.5157 30.9321H40.1149L40.06 30.9321Z" fill="black"/>
<path d="M23.2762 33.0758C23.9689 33.074 26.0673 33.0687 28.3835 35.0482H28.3821C30.8778 37.1806 30.5631 40.4056 30.5631 40.4056V52.708H25.7649V40.4056C25.7649 40.4056 25.862 39.1307 24.9774 38.1097C24.0935 37.0887 22.8934 37.0317 22.5059 37.0317H19.1228C19.1228 37.0317 17.669 37.0776 16.8329 38.0297C15.9968 38.9817 15.9483 39.6352 15.9483 40.2887V52.708H11.1501V33.0744H15.9483V33.998C17.3381 33.0063 18.8205 33.0759 18.8205 33.0759H23.2214L23.2762 33.0758Z" fill="black"/>
<path fill-rule="evenodd" clip-rule="evenodd" d="M52.8344 45.3825V40.405C52.8344 40.405 53.1492 37.18 50.6534 35.0476C48.3365 33.0674 46.2387 33.0727 45.5461 33.0745L45.4912 33.0745H40.1674L40.1124 33.0745C39.4197 33.0727 37.3221 33.0674 35.0052 35.0469C32.5094 37.18 32.8242 40.4044 32.8242 40.4044V45.3818C32.8242 45.3818 32.5094 48.6069 35.0052 50.7393C37.3213 52.7188 39.4197 52.7134 40.1124 52.7117L40.1674 52.7116H41.5263V52.706H44.133V52.7116H45.492L45.5469 52.7117C46.2395 52.7134 48.3372 52.7188 50.6541 50.7393C53.1498 48.6061 52.8352 45.3818 52.8352 45.3818L52.8344 45.3825ZM47.2487 47.6785C46.3641 48.6988 45.1648 48.7565 44.7772 48.7565H44.6338V48.751H41.3056V48.7565H40.8821C40.4946 48.7565 39.2945 48.6994 38.4106 47.6785C37.5267 46.6575 37.623 45.3825 37.623 45.3825V40.405C37.623 40.405 37.5259 39.13 38.4106 38.1091C39.2952 37.0882 40.4946 37.0311 40.8821 37.0311H44.7772C45.1648 37.0311 46.3648 37.0882 47.2487 38.1091C48.1333 39.13 48.0363 40.405 48.0363 40.405V45.3825C48.0363 45.3825 48.1333 46.6575 47.2487 47.6785Z" fill="black"/>
<path d="M25.7729 23.6766L25.7737 11.3672H30.5851V21.1844L30.5725 23.6766C30.5725 23.6766 30.7264 26.9623 28.3915 29.0341C26.0746 31.0135 23.9769 31.0082 23.2843 31.0065C23.2648 31.0064 23.2465 31.0064 23.2294 31.0064H19.0315C19.0056 31.0064 18.977 31.0066 18.946 31.0067C18.2209 31.0111 16.1151 31.024 13.8694 29.0341C11.6758 27.0903 11.6883 23.6766 11.6883 23.6766V23.0321H16.4865V23.6766C16.4865 23.6766 16.4776 24.9919 17.274 25.9726C18.1234 27.0193 19.358 27.0506 19.7455 27.0506H22.5139C22.9014 27.0506 24.1007 26.9935 24.9853 25.9726C25.87 24.9516 25.7729 23.6766 25.7729 23.6766Z" fill="black"/>
</g>
<defs>
<clipPath id="clip0_32_101">
<rect width="42" height="42" fill="white" transform="translate(11 11)"/>
</clipPath>
</defs>
</svg>
