<svg width="64" height="64" viewBox="0 0 64 64" fill="none" xmlns="http://www.w3.org/2000/svg">
<path d="M21.73 39.6201L19.3245 29.8999H19.2846L16.9187 39.6201H13.7576L10 25.34H13.1214L15.3679 35.06H15.4078L17.873 25.34H20.7955L23.2211 35.1801H23.261L25.587 25.34H28.6488L24.8317 39.6201H21.73Z" fill="black"/>
<path d="M32.4656 36.1001C32.6377 36.4336 32.8663 36.7036 33.1514 36.9102C33.4363 37.1171 33.7709 37.2701 34.1557 37.37C34.5399 37.4699 34.9375 37.5201 35.3485 37.5201C35.6267 37.5201 35.925 37.4972 36.2431 37.45C36.5612 37.4037 36.8594 37.3136 37.1376 37.1799C37.4161 37.0469 37.648 36.8636 37.8335 36.6301C38.0191 36.3971 38.112 36.1001 38.112 35.7403C38.112 35.3535 37.9892 35.0402 37.7442 34.7999C37.4987 34.5602 37.1775 34.3601 36.7799 34.2001C36.3823 34.0401 35.9314 33.9 35.428 33.7802C34.9241 33.66 34.414 33.527 33.897 33.3802C33.3669 33.2469 32.8498 33.0835 32.3462 32.8901C31.8425 32.697 31.3922 32.4469 30.9943 32.1401C30.5967 31.8336 30.2752 31.4501 30.0303 30.9901C29.7847 30.53 29.6625 29.9734 29.6625 29.3199C29.6625 28.5867 29.8179 27.9499 30.1296 27.4101C30.441 26.87 30.8483 26.4201 31.3522 26.06C31.8556 25.7001 32.4257 25.4334 33.0622 25.26C33.6984 25.0868 34.3345 25 34.9707 25C35.7129 25 36.425 25.0834 37.1077 25.2501C37.7903 25.4169 38.3966 25.6869 38.927 26.06C39.4569 26.4336 39.878 26.9102 40.1896 27.4901C40.5007 28.07 40.6567 28.7734 40.6567 29.6001H37.6348C37.6081 29.1734 37.5185 28.82 37.3664 28.5399C37.2138 28.26 37.0115 28.0399 36.7601 27.8799C36.5081 27.7199 36.2199 27.6068 35.8951 27.5401C35.5701 27.4735 35.2157 27.4398 34.8315 27.4398C34.5795 27.4398 34.3276 27.4668 34.0758 27.5201C33.8242 27.5734 33.5954 27.6669 33.39 27.8C33.1844 27.9333 33.0156 28.1 32.883 28.2999C32.7505 28.5 32.6843 28.7535 32.6843 29.06C32.6843 29.3401 32.7371 29.5669 32.8434 29.7401C32.9494 29.9133 33.1581 30.0733 33.4695 30.2201C33.7809 30.3669 34.2117 30.5134 34.762 30.66C35.3116 30.807 36.031 30.9934 36.9188 31.22C37.184 31.2733 37.552 31.3699 38.0224 31.5102C38.4925 31.65 38.96 31.8734 39.4243 32.18C39.888 32.487 40.2889 32.8968 40.6268 33.4099C40.965 33.9234 41.1338 34.5802 41.1338 35.3802C41.1338 36.0336 41.0077 36.6402 40.756 37.2001C40.5044 37.7602 40.1299 38.2435 39.633 38.6499C39.1358 39.057 38.5197 39.3736 37.7838 39.6001C37.0483 39.8266 36.1965 39.94 35.2291 39.94C34.447 39.94 33.6883 39.8432 32.9527 39.6501C32.217 39.4569 31.5674 39.1535 31.0044 38.7401C30.441 38.3269 29.9934 37.8003 29.6625 37.1601C29.331 36.5201 29.172 35.7602 29.1851 34.8802H32.2072C32.2072 35.3602 32.2931 35.7669 32.4656 36.1001Z" fill="black"/>
<path d="M46.0842 25.3399L52.0088 34.92H52.0483V25.3399H54.9709V39.62H51.8497L45.9449 30.0601H45.905V39.62H42.9825V25.3399H46.0842Z" fill="black"/>
</svg>
