<svg width="64" height="64" viewBox="0 0 64 64" fill="none" xmlns="http://www.w3.org/2000/svg">
<path d="M36.8334 18.6581C33.3916 18.6581 30.2249 19.848 27.7164 21.8347C26.7593 21.5862 25.7562 21.453 24.7224 21.453C21.5493 21.453 18.2905 22.6997 16.1526 24.7282C19.2061 19.2249 25.4481 15.4906 32.1753 15.4906C37.5077 15.4906 42.3007 17.8375 45.5806 21.551C43.1335 19.7355 40.1079 18.6581 36.8334 18.6581ZM32.1753 14C22.4401 14 14.3599 21.2166 13.0002 30.5809C14.2261 26.1818 19.9378 22.9435 24.7224 22.9435C25.273 22.9435 25.8131 22.9884 26.3409 23.071C24.3534 25.095 22.9427 27.6874 22.3837 30.5809C23.007 27.6971 24.9313 25.1622 27.4677 23.3123C30.9997 24.2774 33.7902 27.0554 34.7727 30.5809H36.3127C35.3957 26.782 32.6558 23.6876 29.0747 22.2777C31.4539 20.9328 34.1859 20.1487 36.8334 20.1487C43.1684 20.1487 48.4749 24.6255 49.7621 30.5809H51.3503C49.9906 21.2166 41.9104 14 32.1753 14Z" fill="#009959"/>
<path d="M13.8021 41.8151C13.2674 41.2728 13 40.4746 13 39.4205V34.4373H13.7054V39.5001C13.7054 41.1685 14.5206 42.0027 16.1513 42.0027C16.9476 42.0027 17.5525 41.7924 17.9658 41.3715C18.3792 40.9506 18.5859 40.3267 18.5859 39.5001V34.4373H19.2799V39.4205C19.2799 40.4746 19.0143 41.2728 18.4835 41.8151C17.9526 42.3574 17.1752 42.6286 16.1513 42.6286C15.1198 42.6286 14.3367 42.3574 13.8021 41.8151Z" fill="black"/>
<path d="M24.3993 38.3056C25.7264 38.3056 26.3901 37.752 26.3901 36.6446C26.3901 35.5751 25.7264 35.0405 24.3993 35.0405H22.0102V38.3056H24.3993ZM27.5506 42.5376H26.8225L25.81 39.8414C25.6809 39.4774 25.5028 39.2328 25.2752 39.1078C25.0477 38.9825 24.7178 38.9199 24.2855 38.9199H22.0216V42.5376H21.3162V34.4376H24.4447C25.2866 34.4376 25.9388 34.6292 26.4015 35.0121C26.8641 35.3951 27.0955 35.9433 27.0955 36.6562C27.0955 37.1794 26.957 37.6194 26.6803 37.9757C26.4033 38.3323 26.0071 38.5826 25.4914 38.7266C25.7264 38.7645 25.9274 38.8629 26.0943 39.0222C26.2611 39.1815 26.4015 39.4168 26.5153 39.7277L27.5506 42.5376Z" fill="black"/>
<path d="M33.8476 41.5478C34.1699 41.2901 34.3309 40.8958 34.3309 40.3646C34.3309 39.2801 33.667 38.7379 32.3402 38.7379H29.8372V41.9347H32.3402C33.0227 41.9347 33.525 41.8057 33.8476 41.5478ZM29.8372 38.1123H32.1693C32.8218 38.1123 33.3147 37.9796 33.6483 37.714C33.9822 37.4487 34.1489 37.0618 34.1489 36.5536C34.1489 35.545 33.489 35.0405 32.1693 35.0405H29.8372V38.1123ZM34.6608 39.0735C34.9188 39.4111 35.0477 39.834 35.0477 40.342C35.0477 41.0475 34.8162 41.5897 34.3536 41.969C33.891 42.3483 33.235 42.5376 32.3855 42.5376H29.1432V34.4376H32.2719C33.0984 34.4376 33.7353 34.6215 34.1832 34.9895C34.6305 35.3574 34.8544 35.8823 34.8544 36.5649C34.8544 37.0048 34.7425 37.3804 34.5188 37.6914C34.2949 38.0023 33.9822 38.2336 33.58 38.3853C34.0429 38.5066 34.4029 38.7362 34.6608 39.0735Z" fill="black"/>
<path d="M37.9033 39.7617H41.7373L39.826 35.2908L37.9033 39.7617ZM42.9318 42.5376L42.0103 40.3763H37.6417L36.7088 42.5376H35.9809L39.5074 34.4376H40.1446L43.66 42.5376H42.9318Z" fill="black"/>
<path d="M50.6903 34.4373H51.3502V42.5376H50.8042L45.6621 35.6318V42.5376H45.0022V34.4373H45.5597L50.6903 41.3429V34.4373Z" fill="black"/>
<path d="M14.2789 50.0325C13.8677 49.7907 13.5517 49.4438 13.3311 48.9905C13.1102 48.5376 13 48.0044 13 47.3893C13 46.7747 13.1102 46.2435 13.3311 45.796C13.5517 45.3489 13.8677 45.0046 14.2789 44.7628C14.6898 44.5215 15.1742 44.4011 15.7316 44.4011C16.1398 44.4011 16.5137 44.4626 16.8533 44.5859C17.1924 44.7092 17.4865 44.8946 17.7347 45.142L17.478 45.6605C17.1968 45.4187 16.9193 45.2458 16.6461 45.142C16.3729 45.0374 16.0708 44.9853 15.7397 44.9853C15.094 44.9853 14.5935 45.1942 14.2375 45.6109C13.8815 46.0284 13.7036 46.6208 13.7036 47.3893C13.7036 48.1631 13.8801 48.7604 14.2334 49.1802C14.5865 49.6002 15.0886 49.81 15.7397 49.81C16.0708 49.81 16.3729 49.7578 16.6461 49.6532C16.9193 49.5495 17.1968 49.3766 17.478 49.1348L17.7347 49.6532C17.4865 49.9007 17.1924 50.0861 16.8533 50.2094C16.5137 50.3327 16.1398 50.3942 15.7316 50.3942C15.1742 50.3942 14.6898 50.2737 14.2789 50.0325Z" fill="black"/>
<path d="M19.7466 48.2623H22.3455L21.046 45.2483L19.7466 48.2623ZM23.2313 50.3287L22.5857 48.8219H19.5064L18.8523 50.3287H18.1487L20.7398 44.4665H21.3357L23.9265 50.3287H23.2313Z" fill="black"/>
<path d="M28.885 44.4663H29.5306V50.3287H29.0008L25.4413 45.6109V50.3287H24.804V44.4663H25.3254L28.885 49.1841V44.4663Z" fill="black"/>
<path d="M34.9029 49.1844C35.2504 48.7615 35.4245 48.1631 35.4245 47.3893C35.4245 46.6154 35.2518 46.0199 34.9071 45.6029C34.5622 45.1854 34.0749 44.9771 33.4459 44.9771C32.8169 44.9771 32.3285 45.1868 31.9807 45.6069C31.633 46.027 31.4593 46.6208 31.4593 47.3893C31.4593 48.1631 31.633 48.7615 31.9807 49.1844C32.3285 49.607 32.8169 49.8182 33.4459 49.8182C34.0695 49.8182 34.5554 49.607 34.9029 49.1844ZM32.0221 50.0325C31.6193 49.7907 31.309 49.4438 31.0908 48.9905C30.8729 48.5376 30.7641 48.0072 30.7641 47.3972C30.7641 46.783 30.8714 46.2503 31.0867 45.8008C31.302 45.3504 31.6111 45.0046 32.014 44.7628C32.4164 44.5215 32.894 44.4011 33.4459 44.4011C33.9975 44.4011 34.4752 44.5215 34.878 44.7628C35.281 45.0046 35.59 45.3504 35.8049 45.8008C36.0203 46.2503 36.128 46.7801 36.128 47.3893C36.128 48.0044 36.0189 48.5364 35.8009 48.9865C35.5829 49.437 35.2725 49.7839 34.8697 50.028C34.4667 50.2723 33.9921 50.3942 33.4459 50.3942C32.8994 50.3942 32.4249 50.2737 32.0221 50.0325Z" fill="black"/>
<path d="M39.6624 47.1917C40.0981 47.1917 40.4263 47.0984 40.6474 46.9116C40.868 46.7254 40.9785 46.4567 40.9785 46.1049C40.9785 45.7537 40.868 45.4864 40.6474 45.3022C40.4263 45.1185 40.0981 45.0267 39.6624 45.0267H38.0481V47.1917H39.6624ZM37.3695 44.4665H39.7203C40.3271 44.4665 40.8002 44.612 41.1398 44.9028C41.4794 45.1942 41.6489 45.5941 41.6489 46.1049C41.6489 46.6154 41.4777 47.0174 41.1358 47.3108C40.7937 47.605 40.3217 47.7518 39.7203 47.7518H38.0481V50.3287H37.3695V44.4665Z" fill="black"/>
<path d="M42.7583 50.3287V44.4665H46.4832V45.0267H43.4287V47.0684H46.3174V47.6364H43.4287V49.7686H46.4832V50.3287H42.7583Z" fill="black"/>
<path d="M47.6253 50.3287V44.4665H51.3502V45.0267H48.2957V47.0684H51.1846V47.6364H48.2957V49.7686H51.3502V50.3287H47.6253Z" fill="black"/>
<path d="M36.8334 18.6581C33.3916 18.6581 30.2249 19.848 27.7164 21.8347C26.7593 21.5862 25.7562 21.453 24.7224 21.453C21.5493 21.453 18.2905 22.6997 16.1526 24.7282C19.2061 19.2249 25.4481 15.4906 32.1753 15.4906C37.5077 15.4906 42.3007 17.8375 45.5806 21.551C43.1335 19.7355 40.1079 18.6581 36.8334 18.6581ZM32.1753 14C22.4401 14 14.3599 21.2166 13.0002 30.5809C14.2261 26.1818 19.9378 22.9435 24.7224 22.9435C25.273 22.9435 25.8131 22.9884 26.3409 23.071C24.3534 25.095 22.9427 27.6874 22.3837 30.5809C23.007 27.6971 24.9313 25.1622 27.4677 23.3123C30.9997 24.2774 33.7902 27.0554 34.7727 30.5809H36.3127C35.3957 26.782 32.6558 23.6876 29.0747 22.2777C31.4539 20.9328 34.1859 20.1487 36.8334 20.1487C43.1684 20.1487 48.4749 24.6255 49.7621 30.5809H51.3503C49.9906 21.2166 41.9104 14 32.1753 14Z" fill="#5CAF7D"/>
<path d="M13.8021 41.8151C13.2674 41.2728 13 40.4746 13 39.4205V34.4373H13.7054V39.5001C13.7054 41.1685 14.5206 42.0027 16.1513 42.0027C16.9476 42.0027 17.5525 41.7924 17.9658 41.3715C18.3792 40.9506 18.5859 40.3267 18.5859 39.5001V34.4373H19.2799V39.4205C19.2799 40.4746 19.0143 41.2728 18.4835 41.8151C17.9526 42.3574 17.1752 42.6286 16.1513 42.6286C15.1198 42.6286 14.3367 42.3574 13.8021 41.8151Z" fill="black"/>
<path d="M24.3993 38.3056C25.7264 38.3056 26.3901 37.752 26.3901 36.6446C26.3901 35.5751 25.7264 35.0405 24.3993 35.0405H22.0102V38.3056H24.3993ZM27.5506 42.5376H26.8225L25.81 39.8414C25.6809 39.4774 25.5028 39.2328 25.2752 39.1078C25.0477 38.9825 24.7178 38.9199 24.2855 38.9199H22.0216V42.5376H21.3162V34.4376H24.4447C25.2866 34.4376 25.9388 34.6292 26.4015 35.0121C26.8641 35.3951 27.0955 35.9433 27.0955 36.6562C27.0955 37.1794 26.957 37.6194 26.6803 37.9757C26.4033 38.3323 26.0071 38.5826 25.4914 38.7266C25.7264 38.7645 25.9274 38.8629 26.0943 39.0222C26.2611 39.1815 26.4015 39.4168 26.5153 39.7277L27.5506 42.5376Z" fill="black"/>
<path d="M33.8476 41.5478C34.1699 41.2901 34.3309 40.8958 34.3309 40.3646C34.3309 39.2801 33.667 38.7379 32.3402 38.7379H29.8372V41.9347H32.3402C33.0227 41.9347 33.525 41.8057 33.8476 41.5478ZM29.8372 38.1123H32.1693C32.8218 38.1123 33.3147 37.9796 33.6483 37.714C33.9822 37.4487 34.1489 37.0618 34.1489 36.5536C34.1489 35.545 33.489 35.0405 32.1693 35.0405H29.8372V38.1123ZM34.6608 39.0735C34.9188 39.4111 35.0477 39.834 35.0477 40.342C35.0477 41.0475 34.8162 41.5897 34.3536 41.969C33.891 42.3483 33.235 42.5376 32.3855 42.5376H29.1432V34.4376H32.2719C33.0984 34.4376 33.7353 34.6215 34.1832 34.9895C34.6305 35.3574 34.8544 35.8823 34.8544 36.5649C34.8544 37.0048 34.7425 37.3804 34.5188 37.6914C34.2949 38.0023 33.9822 38.2336 33.58 38.3853C34.0429 38.5066 34.4029 38.7362 34.6608 39.0735Z" fill="black"/>
<path d="M37.9033 39.7617H41.7373L39.826 35.2908L37.9033 39.7617ZM42.9318 42.5376L42.0103 40.3763H37.6417L36.7088 42.5376H35.9809L39.5074 34.4376H40.1446L43.66 42.5376H42.9318Z" fill="black"/>
<path d="M50.6903 34.4373H51.3502V42.5376H50.8042L45.6621 35.6318V42.5376H45.0022V34.4373H45.5597L50.6903 41.3429V34.4373Z" fill="black"/>
<path d="M14.2789 50.0325C13.8677 49.7907 13.5517 49.4438 13.3311 48.9905C13.1102 48.5376 13 48.0044 13 47.3893C13 46.7747 13.1102 46.2435 13.3311 45.796C13.5517 45.3489 13.8677 45.0046 14.2789 44.7628C14.6898 44.5215 15.1742 44.4011 15.7316 44.4011C16.1398 44.4011 16.5137 44.4626 16.8533 44.5859C17.1924 44.7092 17.4865 44.8946 17.7347 45.142L17.478 45.6605C17.1968 45.4187 16.9193 45.2458 16.6461 45.142C16.3729 45.0374 16.0708 44.9853 15.7397 44.9853C15.094 44.9853 14.5935 45.1942 14.2375 45.6109C13.8815 46.0284 13.7036 46.6208 13.7036 47.3893C13.7036 48.1631 13.8801 48.7604 14.2334 49.1802C14.5865 49.6002 15.0886 49.81 15.7397 49.81C16.0708 49.81 16.3729 49.7578 16.6461 49.6532C16.9193 49.5495 17.1968 49.3766 17.478 49.1348L17.7347 49.6532C17.4865 49.9007 17.1924 50.0861 16.8533 50.2094C16.5137 50.3327 16.1398 50.3942 15.7316 50.3942C15.1742 50.3942 14.6898 50.2737 14.2789 50.0325Z" fill="black"/>
<path d="M19.7466 48.2623H22.3455L21.046 45.2483L19.7466 48.2623ZM23.2313 50.3287L22.5857 48.8219H19.5064L18.8523 50.3287H18.1487L20.7398 44.4665H21.3357L23.9265 50.3287H23.2313Z" fill="black"/>
<path d="M28.885 44.4663H29.5306V50.3287H29.0008L25.4413 45.6109V50.3287H24.804V44.4663H25.3254L28.885 49.1841V44.4663Z" fill="black"/>
<path d="M34.9029 49.1844C35.2504 48.7615 35.4245 48.1631 35.4245 47.3893C35.4245 46.6154 35.2518 46.0199 34.9071 45.6029C34.5622 45.1854 34.0749 44.9771 33.4459 44.9771C32.8169 44.9771 32.3285 45.1868 31.9807 45.6069C31.633 46.027 31.4593 46.6208 31.4593 47.3893C31.4593 48.1631 31.633 48.7615 31.9807 49.1844C32.3285 49.607 32.8169 49.8182 33.4459 49.8182C34.0695 49.8182 34.5554 49.607 34.9029 49.1844ZM32.0221 50.0325C31.6193 49.7907 31.309 49.4438 31.0908 48.9905C30.8729 48.5376 30.7641 48.0072 30.7641 47.3972C30.7641 46.783 30.8714 46.2503 31.0867 45.8008C31.302 45.3504 31.6111 45.0046 32.014 44.7628C32.4164 44.5215 32.894 44.4011 33.4459 44.4011C33.9975 44.4011 34.4752 44.5215 34.878 44.7628C35.281 45.0046 35.59 45.3504 35.8049 45.8008C36.0203 46.2503 36.128 46.7801 36.128 47.3893C36.128 48.0044 36.0189 48.5364 35.8009 48.9865C35.5829 49.437 35.2725 49.7839 34.8697 50.028C34.4667 50.2723 33.9921 50.3942 33.4459 50.3942C32.8994 50.3942 32.4249 50.2737 32.0221 50.0325Z" fill="black"/>
<path d="M39.6624 47.1917C40.0981 47.1917 40.4263 47.0984 40.6474 46.9116C40.868 46.7254 40.9785 46.4567 40.9785 46.1049C40.9785 45.7537 40.868 45.4864 40.6474 45.3022C40.4263 45.1185 40.0981 45.0267 39.6624 45.0267H38.0481V47.1917H39.6624ZM37.3695 44.4665H39.7203C40.3271 44.4665 40.8002 44.612 41.1398 44.9028C41.4794 45.1942 41.6489 45.5941 41.6489 46.1049C41.6489 46.6154 41.4777 47.0174 41.1358 47.3108C40.7937 47.605 40.3217 47.7518 39.7203 47.7518H38.0481V50.3287H37.3695V44.4665Z" fill="black"/>
<path d="M42.7583 50.3287V44.4665H46.4832V45.0267H43.4287V47.0684H46.3174V47.6364H43.4287V49.7686H46.4832V50.3287H42.7583Z" fill="black"/>
<path d="M47.6253 50.3287V44.4665H51.3502V45.0267H48.2957V47.0684H51.1846V47.6364H48.2957V49.7686H51.3502V50.3287H47.6253Z" fill="black"/>
</svg>
