<svg width="64" height="64" viewBox="0 0 64 64" fill="none" xmlns="http://www.w3.org/2000/svg">
<path d="M9.23044 42.1843L17.6483 23.0537L22.1451 33.273L18.224 42.1843H9.23044ZM27.4086 22.7991L35.9385 42.1843H26.945L18.4151 22.7991H27.4086ZM40.5187 33.2672L36.7061 41.9315L32.2095 31.7124L36.0219 23.048L40.5187 33.2672ZM45.7846 22.7991L54.3145 42.1843H45.3211L36.7912 22.7991H45.7846ZM46.3078 22H35.6083L31.7701 30.7138L27.9357 22H17.2333L8 42.9834H18.7512L22.5845 34.2716L26.4187 42.9834H37.1221L40.9581 34.2658L44.7941 42.9834H55.545L46.3078 22Z" fill="#030405"/>
</svg>
