<svg width="64" height="64" viewBox="0 0 64 64" fill="none" xmlns="http://www.w3.org/2000/svg">
<path d="M25.0058 13C25.0058 13 25.3421 16.1075 39.4749 19.4079C53.6078 22.7084 45.5314 31.2534 44.6907 31.8357C43.8499 32.4179 45.1951 28.34 34.7637 26.9815C24.3322 25.623 25.0048 21.0186 25.0048 21.0186V13H25.0058Z" fill="#08588A"/>
<path d="M25.0058 28.5352C25.0058 28.5352 25.3421 31.6428 39.4749 34.9432C53.6078 38.2436 45.5314 46.7887 44.6907 47.3709C43.8499 47.9531 45.1951 43.8752 34.7637 42.5167C24.3322 41.1582 25.0048 36.5539 25.0048 36.5539V28.5352H25.0058Z" fill="#08588A"/>
<path d="M42.3799 49.7556C38.7278 52.8561 35.8501 52.1007 33.8434 51.1885C29.4654 49.1989 17 41.4941 17 41.4941C17 41.4941 25.5647 45.551 31.8638 47.7102C37.1359 49.5197 42.3799 49.7556 42.3799 49.7556Z" fill="#5EBFD4"/>
</svg>
